<svg width="1428" height="72" viewBox="0 0 1428 72" fill="none" xmlns="http://www.w3.org/2000/svg">
<mask id="path-1-inside-1_32334_9895" fill="white">
<path d="M0 0H1428V72H0V0Z"/>
</mask>
<path d="M0 0H1428V72H0V0Z" fill="white"/>
<path d="M1428 72V71H0V72V73H1428V72Z" fill="#E5E7EB" mask="url(#path-1-inside-1_32334_9895)"/>
<path d="M23.75 30.75H40.25M23.75 36H32M23.75 41.25H40.25" stroke="#111827" stroke-width="1.5" stroke-linecap="round" stroke-linejoin="round"/>
<path d="M106.256 24.6076C108.416 21.9127 105.783 18.4498 102.606 19.8028C102.313 19.928 102.044 20.1317 101.842 20.3784C99.6495 23.0789 102.313 26.5848 105.501 25.1869C105.791 25.0599 106.058 24.8543 106.256 24.6076Z" fill="url(#paint0_linear_32334_9895)"/>
<path d="M92.3553 48.2709L93.856 46.06L93.8579 46.0563L94.5662 45.0116C95.1025 45.0789 95.7211 45.1424 96.4219 45.1742C98.0516 45.2471 99.8176 45.1387 101.245 44.4098C101.249 44.408 101.251 44.4061 101.255 44.4042C103.621 43.3091 106.829 40.6366 107.041 34.1817C107.061 33.5593 106.547 33.0342 105.889 33.0062C105.884 33.0062 105.88 33.0062 105.875 33.0062C105.86 33.0062 104.45 32.9557 102.939 32.7333C100.844 32.4268 100.132 32.0306 99.9223 31.8755C99.8774 31.8419 99.8456 31.797 99.8232 31.7447C98.003 27.4613 94.5867 26.5157 92.331 26.198C92.2395 26.1849 92.1666 26.1382 92.1161 26.0634C91.1649 24.6805 89.3353 23.2022 85.8237 23.0452C85.3584 23.0247 84.9267 23.0565 84.5081 23.1088C84.4819 22.935 84.3903 22.7687 84.2315 22.6528C83.9063 22.4117 83.4372 22.464 83.1831 22.7705C83.0186 22.9686 82.9962 23.2209 83.0821 23.4433C79.5706 24.7066 78.1876 28.6219 77.769 30.173C77.7373 30.2945 77.6494 30.3748 77.5279 30.401C76.1282 30.7112 74.3752 31.3373 73.1885 31.8026C72.8185 31.9484 72.4428 32.1166 72.2074 32.3726C72.056 32.5371 71.9831 32.7333 72.0037 32.9221C72.0223 33.0959 72.1158 33.2491 72.2765 33.3631C72.5101 33.5313 72.8372 33.5911 73.0708 33.6135C73.2371 33.6285 73.4015 33.6285 73.566 33.621C73.8463 33.6061 74.1211 33.5649 74.3864 33.522C75.3414 33.365 76.2721 33.1613 77.186 32.9314L74.3285 37.6446C74.2706 37.7381 74.2631 37.8539 74.3061 37.9549L77.7373 45.9236C77.941 46.3945 78.4586 46.6767 78.9912 46.6039L87.4066 45.4601C87.7524 45.4134 88.0663 45.2602 88.3074 45.0322C88.4065 44.9387 88.4924 44.8341 88.5616 44.7182L89.2886 43.3726C89.5988 42.9166 90.165 42.0158 90.2491 41.4982C90.5612 39.5677 90.023 38.0483 87.7505 35.0152C86.874 33.8453 86.6404 32.6062 87.0927 31.526C87.3637 30.8794 87.7879 30.3823 88.2999 30.0908C88.941 29.7245 89.61 29.5395 90.2454 29.4516V29.4479C90.2454 29.4479 87.0908 29.2367 85.5509 30.0142C85.4817 30.0478 85.4275 30.1039 85.3883 30.1711C84.2446 32.1091 84.6183 34.3611 85.9901 36.1907C88.2887 39.2593 88.2869 40.2124 88.0944 41.3038C88.0869 41.3505 88.0682 41.3954 88.042 41.4346L87.3132 42.5541C87.1712 42.7877 86.9469 42.9596 86.6815 43.0437C86.6161 43.0661 86.5488 43.083 86.4778 43.0904L79.9892 43.9725C79.8378 43.9931 79.6902 43.9109 79.6304 43.7707L77.0196 37.7044C76.9766 37.6035 76.9841 37.4876 77.042 37.3942L80.3088 32.0026C80.4078 31.9577 80.5162 31.9222 80.6078 31.8736C80.7424 31.8026 80.8638 31.7241 80.9816 31.6438L81.0115 31.6513C81.0115 31.6513 85.1958 28.4724 92.2021 28.5191C92.6805 28.5733 93.0879 28.6574 93.3552 28.7321C95.0838 29.2218 96.6219 30.2534 97.6236 32.6679C98.0422 33.6789 102.141 34.7498 104.396 35.1908C103.961 35.0768 104.219 35.7085 104.413 35.9402C104.389 36.8915 104.163 38.5865 103.099 40.0648C103.084 40.0835 103.071 40.1022 103.054 40.1208C102.404 40.831 101.515 41.5131 100.393 42.1541C100.373 42.1672 100.35 42.1766 100.326 42.1859C99.3055 42.5896 98.003 42.8045 96.4182 42.7933C96.5322 42.7578 96.6387 42.7054 96.7621 42.7036L93.5944 42.5615C93.5888 42.5597 93.5832 42.5597 93.5775 42.5597C93.4822 42.541 93.3888 42.5466 93.2954 42.5485L92.4787 42.513C92.0432 42.4943 91.6302 42.6942 91.3947 43.04L89.4773 45.8619L87.2104 49.2034L86.6049 50.0967C86.5507 50.1752 85.164 52.4159 85.1715 52.5" fill="#0F225A"/>
<path d="M92.4583 34.1554C92.6732 34.0265 92.9161 33.9256 93.1815 33.862C93.4469 33.7985 93.7123 33.7779 93.9646 33.7929C94.3159 33.8153 94.6373 33.4845 94.4262 33.1164C94.0468 32.4511 93.3684 32.068 92.733 32.2212C92.0976 32.3744 91.6995 33.0155 91.7051 33.7705C91.7107 34.1891 92.1611 34.333 92.4583 34.1554Z" fill="#0F225A"/>
<path d="M72.0056 40.1601C72.0056 40.1601 71.3889 49.3267 83.0934 52.2739C83.0953 52.2739 75.0873 49.0894 72.0056 40.1601Z" fill="url(#paint1_linear_32334_9895)"/>
<path d="M115.46 47.9836C115.183 47.706 115.044 47.3648 115.044 46.9584V27.3568C115.044 26.9518 115.183 26.6035 115.46 26.3161C115.738 26.0286 116.079 25.8842 116.485 25.8842H123.788C125.815 25.8842 127.471 26.2254 128.752 26.9094C130.034 27.5933 130.951 28.4684 131.506 29.536C132.061 30.6037 132.339 31.7577 132.339 32.9953C132.339 34.2329 132.061 35.3869 131.506 36.4546C130.951 37.5236 130.032 38.3973 128.752 39.0812C127.471 39.7652 125.815 40.1064 123.788 40.1064H117.958V46.9612C117.958 47.3662 117.814 47.7075 117.526 47.9864C117.237 48.2625 116.89 48.4027 116.485 48.4027C116.079 48.3999 115.738 48.2597 115.46 47.9836ZM123.5 37.3495C125.678 37.3495 127.21 36.9332 128.097 36.1006C128.983 35.268 129.425 34.2329 129.425 32.9939C129.425 31.7549 128.982 30.7198 128.097 29.8872C127.21 29.0546 125.678 28.6383 123.5 28.6383H117.959V37.3495H123.5Z" fill="#0F225A"/>
<path d="M136.711 47.9836C135.91 47.5985 135.276 47.0392 134.806 46.3029C134.335 45.5651 134.1 44.7169 134.1 43.7555C134.1 42.1752 134.725 40.9164 135.974 39.9762C137.223 39.0374 139.053 38.5673 141.466 38.5673H145.342V38.311C145.342 36.9021 144.995 35.8882 144.301 35.268C143.607 34.6492 142.523 34.3391 141.05 34.3391C140.239 34.3391 139.518 34.4043 138.888 34.5317C138.258 34.6606 137.56 34.8531 136.789 35.1094C136.618 35.1519 136.479 35.1731 136.373 35.1731C136.053 35.1731 135.775 35.057 135.54 34.8206C135.305 34.5855 135.188 34.2981 135.188 33.9554C135.188 33.3777 135.465 32.9727 136.02 32.7391C137.836 31.9702 139.682 31.5864 141.561 31.5864C143.035 31.5864 144.278 31.8852 145.292 32.4842C146.306 33.0817 147.054 33.8563 147.534 34.8064C148.014 35.7565 148.255 36.7874 148.255 37.8975V46.9627C148.255 47.3677 148.11 47.7089 147.821 47.9879C147.534 48.264 147.186 48.4042 146.781 48.4042C146.374 48.4042 146.033 48.2654 145.755 47.9879C145.478 47.7104 145.339 47.3691 145.339 46.9627V46.1301C143.759 47.7528 141.752 48.5642 139.317 48.5642C138.382 48.5599 137.513 48.3688 136.711 47.9836ZM143.133 45.3088C144.008 44.85 144.744 44.2794 145.343 43.5955V40.9051H141.853C138.629 40.9051 137.016 41.7476 137.016 43.4355C137.016 44.2043 137.276 44.8231 137.8 45.2933C138.323 45.7619 139.194 45.9984 140.411 45.9984C141.35 45.9984 142.258 45.769 143.133 45.3088Z" fill="#0F225A"/>
<path d="M153.735 44.3331V34.4028H151.46C151.289 34.4028 151.146 34.3433 151.029 34.2258C150.911 34.1097 150.853 33.9652 150.853 33.7939C150.853 33.5801 150.949 33.3988 151.142 33.2487L155.497 28.988C155.69 28.7969 155.871 28.7006 156.043 28.7006C156.214 28.7006 156.357 28.7643 156.475 28.8931C156.592 29.0206 156.65 29.1707 156.65 29.3406V31.9035H160.269C160.632 31.9035 160.931 32.0211 161.166 32.2561C161.401 32.4912 161.518 32.79 161.518 33.1539C161.518 33.4951 161.402 33.7896 161.166 34.0346C160.931 34.281 160.632 34.4042 160.269 34.4042H156.65V44.0768C156.65 44.9094 156.847 45.4376 157.242 45.6627C157.637 45.8865 158.134 45.9998 158.732 45.9998C159.159 45.9998 159.585 45.9346 160.013 45.8072C160.098 45.7859 160.189 45.7647 160.285 45.742C160.381 45.7208 160.504 45.7109 160.653 45.7109C160.952 45.7109 161.22 45.8228 161.455 46.0479C161.69 46.2716 161.807 46.5435 161.807 46.8649C161.807 47.3563 161.562 47.7301 161.071 47.9864C160.238 48.3715 159.352 48.5627 158.412 48.5627C155.294 48.5599 153.735 47.151 153.735 44.3331Z" fill="url(#paint2_linear_32334_9895)"/>
<path d="M214.166 34.8035C213.686 33.8534 212.939 33.0789 211.925 32.4813C210.91 31.8838 209.666 31.5836 208.194 31.5836C206.315 31.5836 204.467 31.9687 202.653 32.7362C202.098 32.9712 201.82 33.3762 201.82 33.9525C201.82 34.2938 201.937 34.5826 202.173 34.8177C202.408 35.0528 202.686 35.1703 203.006 35.1703C203.113 35.1703 203.251 35.149 203.423 35.1066C204.192 34.8503 204.89 34.6577 205.52 34.5288C206.15 34.4014 206.871 34.3363 207.683 34.3363C209.155 34.3363 210.24 34.6464 210.934 35.2651C211.628 35.8839 211.974 36.8978 211.974 38.3081V38.5644H208.099C205.686 38.5644 203.855 39.0345 202.606 39.9733C201.357 40.9135 200.733 42.1724 200.733 43.7526C200.733 44.7141 200.968 45.5623 201.438 46.3C201.907 47.0363 202.543 47.597 203.344 47.9808C204.145 48.3659 205.015 48.5571 205.955 48.5571C208.389 48.5571 210.396 47.7457 211.976 46.123V46.9556C211.976 47.3606 212.115 47.7018 212.392 47.9808C212.67 48.2569 213.011 48.3971 213.417 48.3971C213.822 48.3971 214.169 48.2583 214.458 47.9808C214.747 47.7032 214.891 47.362 214.891 46.9556V37.8904C214.887 36.7845 214.648 35.7537 214.166 34.8035ZM211.973 43.5954C211.376 44.2794 210.638 44.85 209.763 45.3088C208.888 45.7676 207.98 45.9984 207.04 45.9984C205.823 45.9984 204.953 45.7633 204.43 45.2932C203.906 44.8231 203.646 44.2043 203.646 43.4354C203.646 41.749 205.257 40.9051 208.483 40.9051H211.973V43.5954Z" fill="#0F225A"/>
<path d="M197.823 35.6362C197.141 34.3448 196.179 33.3465 194.94 32.6413C193.701 31.9362 192.271 31.585 190.648 31.585C190.481 31.585 190.324 31.6048 190.161 31.6119C189.762 31.6303 189.375 31.67 189 31.7308C188.026 31.8909 187.128 32.184 186.324 32.6413C185.085 33.3465 184.13 34.3448 183.456 35.6362C182.784 36.929 182.447 38.4073 182.447 40.0725C182.447 40.1135 182.452 40.1518 182.452 40.1942C182.452 40.2296 182.447 40.2608 182.447 40.2962V42.6991V43.8503V47.0873C182.447 47.4923 182.591 47.8406 182.88 48.128C183.169 48.4155 183.514 48.5599 183.921 48.5599C184.327 48.5599 184.668 48.4155 184.946 48.128C185.224 47.8392 185.362 47.4923 185.362 47.0873V46.8437V44.5597V42.6991V40.1999C185.362 40.1744 185.367 40.1518 185.367 40.1277C185.378 38.8788 185.667 37.8125 186.243 36.9346C186.831 36.0383 187.604 35.3657 188.565 34.9168C189.245 34.5997 189.963 34.417 190.706 34.3264C190.8 34.3391 190.893 34.3547 190.985 34.3717C191.587 34.4807 192.169 34.6563 192.728 34.9182C193.69 35.3671 194.463 36.0397 195.051 36.936C195.628 37.8168 195.919 38.8859 195.928 40.1376C195.928 40.1603 195.933 40.1801 195.933 40.2027V42.702V43.4553V46.8197V47.0901C195.933 47.4951 196.077 47.8434 196.365 48.1309C196.653 48.4183 197 48.5628 197.405 48.5628C197.812 48.5628 198.153 48.4183 198.431 48.1309C198.708 47.842 198.848 47.4951 198.848 47.0901V44.9888V42.702V40.299C198.848 40.2636 198.843 40.2311 198.843 40.1957C198.843 40.1546 198.848 40.1164 198.848 40.0753C198.848 38.4073 198.506 36.929 197.823 35.6362Z" fill="#0F225A"/>
<path d="M170.641 48.4607C165.998 47.7074 162.834 43.3164 163.587 38.672C164.34 34.0289 168.731 30.8642 173.376 31.6175C178.019 32.3708 181.184 36.7618 180.43 41.4063C179.675 46.0493 175.284 49.214 170.641 48.4607ZM172.811 35.0881C170.081 34.6449 167.501 36.5055 167.058 39.2341C166.614 41.9642 168.475 44.5441 171.204 44.9873C173.934 45.4305 176.514 43.5699 176.957 40.8413C177.401 38.1127 175.541 35.5313 172.811 35.0881Z" fill="url(#paint3_linear_32334_9895)"/>
<path d="M172.971 31.5608C168.628 31.0624 164.563 33.9935 163.661 38.2712C162.651 43.0601 165.864 47.6847 170.64 48.4607L171.204 44.9887C168.358 44.5271 166.456 41.739 167.127 38.8829C167.693 36.4729 169.989 34.8176 172.455 35.0428C174.924 35.2679 176.764 37.2191 176.998 39.5357C177.077 40.3244 177.682 40.9588 178.464 41.0862C179.61 41.2717 180.614 40.3159 180.494 39.1591C180.093 35.2934 177.059 32.0295 172.971 31.5608Z" fill="url(#paint4_linear_32334_9895)"/>
<path d="M189.066 24.5518C189.049 24.5963 189.004 24.6297 188.919 24.6367C188.695 25.9856 188.229 27.4069 187.57 28.238C187.469 28.16 187.317 28.0862 187.195 28.0361C187.824 27.2719 188.318 25.845 188.498 24.4348L189.066 24.5518ZM191.891 28.2032C191.627 27.2204 190.975 25.6251 190.398 24.5852L190.762 24.4112C191.353 25.4162 192.01 27.0004 192.302 28.0403L191.891 28.2032ZM191.818 23.4284C192.166 23.4284 192.447 23.7096 192.447 24.0632C192.447 24.4056 192.166 24.6924 191.818 24.6924C191.47 24.6924 191.188 24.4056 191.188 24.0632C191.188 23.697 191.481 23.4284 191.818 23.4284ZM192.262 24.0632C192.262 23.8098 192.06 23.6135 191.818 23.6135C191.57 23.6135 191.374 23.8098 191.374 24.0632C191.374 24.3054 191.57 24.5072 191.818 24.5072C192.071 24.5058 192.262 24.2928 192.262 24.0632Z" fill="#0F225A"/>
<path d="M192.945 25.8269H197.635V26.2264H193.158C193.125 26.2821 193.051 26.3225 192.979 26.3336L192.945 25.8269Z" fill="#0F225A"/>
<path d="M201.679 26.6636C201.106 26.3546 200.319 25.9898 199.708 25.7476V28.5568H199.286V23.6748L199.854 23.7082C199.849 23.7695 199.804 23.8098 199.708 23.8265V25.4664L199.793 25.3481C200.45 25.5903 201.321 25.9773 201.905 26.2863L201.679 26.6636Z" fill="#0F225A"/>
<path d="M207.491 25.5624H205.457C205.35 27.006 204.985 27.883 203.76 28.5846C203.681 28.4941 203.547 28.3883 203.44 28.309C204.603 27.6631 204.945 26.8932 205.052 25.5624H202.8V25.1754H205.069C205.086 24.7369 205.091 24.2316 205.091 23.6636L205.641 23.697C205.635 23.7527 205.585 23.7875 205.506 23.7987C205.5 24.3095 205.5 24.7648 205.478 25.1754H207.49V25.5624H207.491Z" fill="#0F225A"/>
<path d="M208.332 25.8269H213.022V26.2264H208.545C208.511 26.2821 208.438 26.3225 208.365 26.3336L208.332 25.8269Z" fill="#0F225A"/>
<circle cx="1328.8" cy="28.8" r="2.4" fill="#111827"/>
<circle cx="1328.8" cy="36" r="2.4" fill="#111827"/>
<circle cx="1328.8" cy="43.2" r="2.4" fill="#111827"/>
<circle cx="1336" cy="28.8" r="2.4" fill="#111827"/>
<circle cx="1336" cy="36" r="2.4" fill="#111827"/>
<circle cx="1336" cy="43.2" r="2.4" fill="#111827"/>
<circle cx="1343.2" cy="28.8" r="2.4" fill="#111827"/>
<circle cx="1343.2" cy="36" r="2.4" fill="#111827"/>
<circle cx="1343.2" cy="43.2" r="2.4" fill="#111827"/>
<g clip-path="url(#clip0_32334_9895)">
<circle cx="1392" cy="36" r="20" fill="#EC5E2A"/>
<path d="M1387.69 39.9385L1385.72 32.7266L1383.74 39.9385C1383.61 40.4268 1383.4 40.6025 1382.88 40.6025C1382.34 40.6025 1382.16 40.3779 1382.03 39.9092L1379.84 31.6914C1379.73 31.3008 1379.95 30.9688 1380.32 30.876C1380.37 30.8613 1380.44 30.8564 1380.5 30.8564C1380.79 30.8564 1381.07 31.0371 1381.15 31.3545L1382.99 38.6494L1384.9 31.4424C1384.99 31.0957 1385.14 30.8564 1385.69 30.8564C1386.32 30.8564 1386.45 31.0615 1386.55 31.4473L1388.45 38.6494L1390.29 31.3545C1390.37 31.0371 1390.64 30.8564 1390.94 30.8564C1391 30.8564 1391.06 30.8613 1391.12 30.876C1391.48 30.9688 1391.7 31.3008 1391.6 31.6914L1389.4 39.9092C1389.28 40.3779 1389.09 40.6025 1388.55 40.6025C1388.04 40.6025 1387.83 40.4268 1387.69 39.9385ZM1400.25 39.9385L1398.28 32.7266L1396.3 39.9385C1396.17 40.4268 1395.96 40.6025 1395.44 40.6025C1394.9 40.6025 1394.71 40.3779 1394.59 39.9092L1392.4 31.6914C1392.29 31.3008 1392.51 30.9688 1392.87 30.876C1392.93 30.8613 1393 30.8564 1393.05 30.8564C1393.35 30.8564 1393.63 31.0371 1393.7 31.3545L1395.55 38.6494L1397.45 31.4424C1397.55 31.0957 1397.7 30.8564 1398.25 30.8564C1398.88 30.8564 1399.01 31.0615 1399.11 31.4473L1401 38.6494L1402.85 31.3545C1402.93 31.0371 1403.2 30.8564 1403.5 30.8564C1403.56 30.8564 1403.62 30.8613 1403.68 30.876C1404.04 30.9688 1404.26 31.3008 1404.16 31.6914L1401.96 39.9092C1401.83 40.3779 1401.65 40.6025 1401.11 40.6025C1400.59 40.6025 1400.38 40.4268 1400.25 39.9385Z" fill="white"/>
</g>
<defs>
<linearGradient id="paint0_linear_32334_9895" x1="101.066" y1="22.103" x2="107.016" y2="22.9021" gradientUnits="userSpaceOnUse">
<stop stop-color="#FF0000"/>
<stop offset="0.1396" stop-color="#FF0600"/>
<stop offset="0.3301" stop-color="#FF1800"/>
<stop offset="0.55" stop-color="#FF3400"/>
<stop offset="0.79" stop-color="#FF5C00"/>
<stop offset="1" stop-color="#FF8500"/>
</linearGradient>
<linearGradient id="paint1_linear_32334_9895" x1="72.0009" y1="46.2169" x2="83.0944" y2="46.2169" gradientUnits="userSpaceOnUse">
<stop stop-color="#FF0000"/>
<stop offset="0.1396" stop-color="#FF0600"/>
<stop offset="0.3301" stop-color="#FF1800"/>
<stop offset="0.55" stop-color="#FF3400"/>
<stop offset="0.79" stop-color="#FF5C00"/>
<stop offset="1" stop-color="#FF8500"/>
</linearGradient>
<linearGradient id="paint2_linear_32334_9895" x1="150.852" y1="38.631" x2="161.806" y2="38.631" gradientUnits="userSpaceOnUse">
<stop stop-color="#FF0000"/>
<stop offset="1" stop-color="#FF8500"/>
</linearGradient>
<linearGradient id="paint3_linear_32334_9895" x1="173.739" y1="31.6843" x2="170.277" y2="48.3928" gradientUnits="userSpaceOnUse">
<stop stop-color="#FF0000"/>
<stop offset="0.2479" stop-color="#FF1D00"/>
<stop offset="0.7821" stop-color="#FF6500"/>
<stop offset="1" stop-color="#FF8500"/>
</linearGradient>
<linearGradient id="paint4_linear_32334_9895" x1="177.283" y1="33.164" x2="165.327" y2="44.6745" gradientUnits="userSpaceOnUse">
<stop offset="0.3441" stop-color="#FF0000"/>
<stop offset="0.3559" stop-color="#FF0300"/>
<stop offset="0.5741" stop-color="#FF3B00"/>
<stop offset="0.7618" stop-color="#FF6300"/>
<stop offset="0.9099" stop-color="#FF7C00"/>
<stop offset="1" stop-color="#FF8500"/>
</linearGradient>
<clipPath id="clip0_32334_9895">
<rect width="40" height="40" fill="white" transform="translate(1372 16)"/>
</clipPath>
</defs>
</svg>
